# xmcd CD database file
#
# Track frame offsets:
#	150
#	18133
#	32645
#	46701
#	69278
#	87182
#	103608
#	123757
#	139673
#	155513
#
# Disc length: 2297 seconds
#
# Revision: 0
# Processed by: cddbd v1.5.2PL0 Copyright (c) Steve Scherf et al.
# Submitted via: CDex 1.51
#
DISCID=6d08f70a
DTITLE=James Blunt - All the Lost Souls 
DYEAR=2007
DGENRE=Blues
TTITLE0=1973
TTITLE1=One Of The Brightest Stars 
TTITLE2=I'll Take Everything
TTITLE3=Same Mistake
TTITLE4=Carry You Home 
TTITLE5=Give Me Some Love
TTITLE6=I Really Want You
TTITLE7=Shine On
TTITLE8=Annie
TTITLE9=I Can't Hear The Music
EXTD=YEAR: 2007
EXTT0=
EXTT1=
EXTT2=
EXTT3=
EXTT4=
EXTT5=
EXTT6=
EXTT7=
EXTT8=
EXTT9=
PLAYORDER=
